<mxfile host="drawio-plugin" modified="2021-10-27T16:15:29.478Z" agent="5.0 (Macintosh; Intel Mac OS X 11_5_2) AppleWebKit/537.36 (KHTML, like Gecko) Chrome/89.0.4389.114 Safari/537.36" etag="KYPvD7rqhM8NMmGaw6Dk" version="14.7.4" type="embed"><diagram id="23iRSUPoRavnBvh4doch" name="Page-1"><mxGraphModel dx="1948" dy="812" grid="1" gridSize="10" guides="1" tooltips="1" connect="1" arrows="1" fold="1" page="1" pageScale="1" pageWidth="827" pageHeight="1169" math="0" shadow="0"><root><mxCell id="0"/><mxCell id="1" parent="0"/><mxCell id="2" value="чистая компановка инпутов (в тч филдов)" style="rounded=0;whiteSpace=wrap;html=1;" vertex="1" parent="1"><mxGeometry x="-120" y="200" width="120" height="60" as="geometry"/></mxCell><mxCell id="3" value="упрощенный дизайн элементов формы" style="rounded=0;whiteSpace=wrap;html=1;" vertex="1" parent="1"><mxGeometry x="554" y="200" width="120" height="60" as="geometry"/></mxCell><mxCell id="4" value="ESM модули в библиотеке" style="rounded=0;whiteSpace=wrap;html=1;" vertex="1" parent="1"><mxGeometry x="-440" y="200" width="120" height="60" as="geometry"/></mxCell><mxCell id="5" value="Единая тема в библиотеке компонентов" style="rounded=0;whiteSpace=wrap;html=1;" vertex="1" parent="1"><mxGeometry x="-280" y="200" width="120" height="60" as="geometry"/></mxCell><mxCell id="6" value="Приоритет стилизованных компонентов над оверрайдом темы" style="rounded=0;whiteSpace=wrap;html=1;" vertex="1" parent="1"><mxGeometry x="-120" y="100" width="120" height="60" as="geometry"/></mxCell><mxCell id="8" value="модульный стейт приложения" style="rounded=0;whiteSpace=wrap;html=1;" vertex="1" parent="1"><mxGeometry x="400" y="200" width="120" height="60" as="geometry"/></mxCell><mxCell id="10" value="лайаут рендеринг (сср и кср)" style="rounded=0;whiteSpace=wrap;html=1;" vertex="1" parent="1"><mxGeometry x="60" y="300" width="120" height="60" as="geometry"/></mxCell><mxCell id="11" value="читая компоновка элементов позиционирования" style="rounded=0;whiteSpace=wrap;html=1;" vertex="1" parent="1"><mxGeometry x="60" y="100" width="120" height="60" as="geometry"/></mxCell><mxCell id="12" value="читая компоновка элементов управления" style="rounded=0;whiteSpace=wrap;html=1;" vertex="1" parent="1"><mxGeometry x="60" y="200" width="120" height="60" as="geometry"/></mxCell><mxCell id="13" value="некст последней версии" style="rounded=0;whiteSpace=wrap;html=1;" vertex="1" parent="1"><mxGeometry x="220" y="200" width="120" height="60" as="geometry"/></mxCell><mxCell id="14" value="материал последней версии" style="rounded=0;whiteSpace=wrap;html=1;" vertex="1" parent="1"><mxGeometry x="220" y="300" width="120" height="60" as="geometry"/></mxCell><mxCell id="15" value="реакт последней версии" style="rounded=0;whiteSpace=wrap;html=1;" vertex="1" parent="1"><mxGeometry x="220" y="100" width="120" height="60" as="geometry"/></mxCell><mxCell id="16" value="" style="endArrow=none;dashed=1;html=1;" edge="1" parent="1"><mxGeometry width="50" height="50" relative="1" as="geometry"><mxPoint x="200" y="478" as="sourcePoint"/><mxPoint x="200" as="targetPoint"/></mxGeometry></mxCell><mxCell id="17" value="" style="endArrow=none;dashed=1;html=1;" edge="1" parent="1"><mxGeometry width="50" height="50" relative="1" as="geometry"><mxPoint x="30" y="478" as="sourcePoint"/><mxPoint x="30" as="targetPoint"/></mxGeometry></mxCell><mxCell id="18" value="" style="endArrow=none;dashed=1;html=1;" edge="1" parent="1"><mxGeometry width="50" height="50" relative="1" as="geometry"><mxPoint x="-140" y="478" as="sourcePoint"/><mxPoint x="-140" as="targetPoint"/></mxGeometry></mxCell></root></mxGraphModel></diagram></mxfile>